<mxfile host="app.diagrams.net" modified="2024-02-26T23:33:20.797Z" agent="Mozilla/5.0 (Windows NT 10.0; Win64; x64) AppleWebKit/537.36 (KHTML, like Gecko) Chrome/121.0.0.0 Safari/537.36" version="23.1.7" etag="wiIF0HKbavuT7hcE0av5" type="github">
  <diagram name="PÃ¡gina-1" id="2npea4UBr_4ZN-9vutPE">
    <mxGraphModel>
      <root>
        <mxCell id="0" />
        <mxCell id="1" parent="0" />
      </root>
    </mxGraphModel>
  </diagram>
</mxfile>
